<svg width="618" height="558" viewBox="0 0 618 558" fill="none" xmlns="http://www.w3.org/2000/svg">
<path d="M30.7241 334.675V319.76C50.9656 319.642 64.815 315.795 72.2724 308.219C79.8481 300.525 83.636 286.675 83.636 266.67V185.705C83.636 171.618 84.9973 159.426 87.7198 149.128C90.5607 138.83 94.9405 130.307 100.859 123.56C106.778 116.694 114.413 111.604 123.764 108.29C133.115 104.975 144.36 103.318 157.5 103.318V122.494C144.716 122.376 134.358 124.566 126.427 129.064C118.615 133.444 112.874 140.309 109.204 149.661C105.653 159.012 103.877 171.027 103.877 185.705V271.464C103.877 282.355 102.694 291.765 100.326 299.696C98.0773 307.627 94.2302 314.196 88.7852 319.405C83.3401 324.495 75.8827 328.342 66.413 330.946C56.9433 333.432 45.047 334.675 30.7241 334.675ZM157.5 557.864C144.36 557.864 133.115 556.206 123.764 552.892C114.413 549.578 106.778 544.488 100.859 537.622C94.9405 530.875 90.5607 522.352 87.7198 512.054C84.9973 501.756 83.636 489.563 83.636 475.477V394.511C83.636 374.507 79.8481 360.716 72.2724 353.141C64.815 345.446 50.9656 341.54 30.7241 341.422V326.507C45.047 326.625 56.9433 327.987 66.413 330.591C75.8827 333.077 83.3401 336.865 88.7852 341.955C94.2302 347.045 98.0773 353.555 100.326 361.486C102.694 369.417 103.877 378.827 103.877 389.717V475.477C103.877 490.155 105.653 502.17 109.204 511.521C112.874 520.873 118.615 527.738 126.427 532.118C134.358 536.498 144.716 538.688 157.5 538.688V557.864ZM30.7241 341.422V319.76H70.3192V341.422H30.7241ZM587.232 326.507V341.422C566.99 341.54 553.081 345.446 545.506 353.141C538.048 360.716 534.32 374.507 534.32 394.511V475.477C534.32 489.563 532.899 501.756 530.058 512.054C527.336 522.352 523.015 530.875 517.097 537.622C511.178 544.488 503.543 549.578 494.192 552.892C484.84 556.206 473.595 557.864 460.456 557.864V538.688C473.358 538.688 483.716 536.498 491.528 532.118C499.341 527.738 505.023 520.873 508.574 511.521C512.243 502.17 514.078 490.155 514.078 475.477V389.717C514.078 378.827 515.203 369.417 517.452 361.486C519.819 353.555 523.725 347.045 529.17 341.955C534.616 336.746 542.073 332.899 551.543 330.413C561.012 327.809 572.909 326.507 587.232 326.507ZM460.456 103.318C473.595 103.318 484.84 104.975 494.192 108.29C503.543 111.604 511.178 116.694 517.097 123.56C523.015 130.307 527.336 138.83 530.058 149.128C532.899 159.426 534.32 171.618 534.32 185.705V266.67C534.32 286.675 538.048 300.525 545.506 308.219C553.081 315.795 566.99 319.642 587.232 319.76V334.675C572.909 334.556 561.012 333.254 551.543 330.768C542.073 328.164 534.616 324.317 529.17 319.227C523.725 314.137 519.819 307.627 517.452 299.696C515.203 291.765 514.078 282.355 514.078 271.464V185.705C514.078 171.027 512.243 159.012 508.574 149.661C505.023 140.309 499.341 133.444 491.528 129.064C483.716 124.566 473.358 122.376 460.456 122.494V103.318ZM587.232 319.76V341.422H547.636V319.76H587.232Z" fill="white"/>
<path d="M240.206 450V231.818H313.927C331.044 231.818 345.035 234.908 355.902 241.087C366.839 247.195 374.936 255.469 380.191 265.909C385.447 276.349 388.075 287.997 388.075 300.852C388.075 313.707 385.447 325.391 380.191 335.902C375.007 346.413 366.981 354.794 356.115 361.044C345.248 367.223 331.328 370.312 314.353 370.312H261.512V346.875H313.501C325.22 346.875 334.63 344.851 341.733 340.803C348.835 336.754 353.984 331.286 357.18 324.396C360.447 317.436 362.081 309.588 362.081 300.852C362.081 292.116 360.447 284.304 357.18 277.415C353.984 270.526 348.799 265.128 341.626 261.222C334.453 257.244 324.936 255.256 313.075 255.256H266.626V450H240.206Z" fill="white"/>
</svg>
