<svg width="1994" height="656" viewBox="0 0 1994 656" fill="none" xmlns="http://www.w3.org/2000/svg">
<path d="M85.9116 334.675V319.76C106.153 319.642 120.002 315.795 127.46 308.219C135.036 300.525 138.824 286.675 138.824 266.67V185.705C138.824 171.618 140.185 159.426 142.907 149.128C145.748 138.83 150.128 130.307 156.047 123.56C161.965 116.694 169.6 111.604 178.951 108.29C188.303 104.975 199.548 103.318 212.687 103.318V122.494C199.903 122.376 189.546 124.566 181.615 129.064C173.802 133.444 168.061 140.309 164.392 149.661C160.841 159.012 159.065 171.027 159.065 185.705V271.464C159.065 282.355 157.881 291.765 155.514 299.696C153.265 307.627 149.418 314.196 143.973 319.405C138.528 324.495 131.07 328.342 121.6 330.946C112.131 333.432 100.234 334.675 85.9116 334.675ZM212.687 557.864C199.548 557.864 188.303 556.206 178.951 552.892C169.6 549.578 161.965 544.488 156.047 537.622C150.128 530.875 145.748 522.352 142.907 512.054C140.185 501.756 138.824 489.563 138.824 475.477V394.511C138.824 374.507 135.036 360.716 127.46 353.141C120.002 345.446 106.153 341.54 85.9116 341.422V326.507C100.234 326.625 112.131 327.987 121.6 330.591C131.07 333.077 138.528 336.865 143.973 341.955C149.418 347.045 153.265 353.555 155.514 361.486C157.881 369.417 159.065 378.827 159.065 389.717V475.477C159.065 490.155 160.841 502.17 164.392 511.521C168.061 520.873 173.802 527.738 181.615 532.118C189.546 536.498 199.903 538.688 212.687 538.688V557.864ZM85.9116 341.422V319.76H125.507V341.422H85.9116ZM1908.04 326.507V341.422C1887.8 341.54 1873.89 345.446 1866.32 353.141C1858.86 360.716 1855.13 374.507 1855.13 394.511V475.477C1855.13 489.563 1853.71 501.756 1850.87 512.054C1848.15 522.352 1843.83 530.875 1837.91 537.622C1831.99 544.488 1824.36 549.578 1815 552.892C1805.65 556.206 1794.41 557.864 1781.27 557.864V538.688C1794.17 538.688 1804.53 536.498 1812.34 532.118C1820.15 527.738 1825.84 520.873 1829.39 511.521C1833.06 502.17 1834.89 490.155 1834.89 475.477V389.717C1834.89 378.827 1836.02 369.417 1838.26 361.486C1840.63 353.555 1844.54 347.045 1849.98 341.955C1855.43 336.746 1862.89 332.899 1872.36 330.413C1881.82 327.809 1893.72 326.507 1908.04 326.507ZM1781.27 103.318C1794.41 103.318 1805.65 104.975 1815 108.29C1824.36 111.604 1831.99 116.694 1837.91 123.56C1843.83 130.307 1848.15 138.83 1850.87 149.128C1853.71 159.426 1855.13 171.618 1855.13 185.705V266.67C1855.13 286.675 1858.86 300.525 1866.32 308.219C1873.89 315.795 1887.8 319.642 1908.04 319.76V334.675C1893.72 334.556 1881.82 333.254 1872.36 330.768C1862.89 328.164 1855.43 324.317 1849.98 319.227C1844.54 314.137 1840.63 307.627 1838.26 299.696C1836.02 291.765 1834.89 282.355 1834.89 271.464V185.705C1834.89 171.027 1833.06 159.012 1829.39 149.661C1825.84 140.309 1820.15 133.444 1812.34 129.064C1804.53 124.566 1794.17 122.376 1781.27 122.494V103.318ZM1908.04 319.76V341.422H1868.45V319.76H1908.04Z" fill="white"/>
<path d="M316.62 389V170.818H383.843C397.692 170.818 409.553 173.659 419.425 179.341C429.369 185.023 437.004 192.8 442.33 202.672C447.657 212.544 450.32 223.801 450.32 236.443C450.32 248.943 447.657 260.129 442.33 270.001C437.004 279.874 429.369 287.686 419.425 293.439C409.553 299.121 397.728 301.962 383.95 301.962H325.995V289.604H383.63C394.852 289.604 404.44 287.331 412.394 282.786C420.349 278.169 426.457 271.884 430.718 263.929C434.979 255.903 437.11 246.741 437.11 236.443C437.11 226.074 434.979 216.876 430.718 208.851C426.457 200.825 420.313 194.54 412.288 189.994C404.333 185.449 394.745 183.176 383.523 183.176H329.937V389H316.62ZM540.262 392.516C530.816 392.516 522.151 390.634 514.267 386.869C506.455 383.105 500.169 377.601 495.411 370.357C490.723 363.112 488.38 354.305 488.38 343.936C488.38 337.118 489.587 331.116 492.002 325.932C494.417 320.747 498.145 316.273 503.188 312.509C508.23 308.744 514.694 305.655 522.577 303.24C530.461 300.754 539.871 298.837 550.809 297.487C559.118 296.493 566.54 295.534 573.074 294.611C579.608 293.616 584.722 292.089 588.415 290.03C592.179 287.97 594.061 284.845 594.061 280.655V273.837C594.061 261.905 590.297 252.423 582.769 245.392C575.24 238.361 564.871 234.845 551.661 234.845C539.942 234.845 530.07 237.437 522.044 242.622C514.09 247.736 508.515 254.341 505.319 262.438L493.067 257.857C496.192 250.044 500.702 243.545 506.597 238.361C512.563 233.176 519.381 229.305 527.051 226.749C534.793 224.192 542.89 222.913 551.341 222.913C558.657 222.913 565.617 223.943 572.222 226.003C578.898 228.062 584.828 231.188 590.013 235.378C595.269 239.568 599.424 244.93 602.478 251.464C605.532 257.928 607.059 265.669 607.059 274.689V389H594.061V359.49H593.103C590.262 365.598 586.355 371.173 581.384 376.216C576.483 381.188 570.553 385.165 563.593 388.148C556.703 391.06 548.926 392.516 540.262 392.516ZM541.54 380.477C551.767 380.477 560.823 377.991 568.706 373.02C576.661 367.977 582.875 361.088 587.35 352.352C591.824 343.616 594.061 333.709 594.061 322.629V298.553C592.428 299.973 590.049 301.251 586.924 302.388C583.87 303.453 580.39 304.412 576.483 305.264C572.648 306.045 568.6 306.756 564.338 307.395C560.148 307.963 556.064 308.496 552.087 308.993C540.155 310.413 530.425 312.615 522.897 315.598C515.439 318.51 509.971 322.345 506.49 327.104C503.081 331.862 501.377 337.615 501.377 344.362C501.377 355.513 505.212 364.32 512.882 370.783C520.553 377.246 530.105 380.477 541.54 380.477ZM661.551 389V225.364H674.228V250.932H675.4C678.951 242.551 684.953 235.839 693.404 230.797C701.856 225.683 711.48 223.126 722.275 223.126C723.412 223.126 724.548 223.126 725.684 223.126C726.821 223.126 727.886 223.162 728.88 223.233V236.337C728.028 236.266 726.998 236.159 725.791 236.017C724.654 235.804 723.234 235.697 721.529 235.697C712.439 235.697 704.342 237.651 697.24 241.557C690.208 245.463 684.669 250.861 680.62 257.75C676.572 264.568 674.548 272.381 674.548 281.188V389H661.551ZM807.156 392.516C797.71 392.516 789.045 390.634 781.162 386.869C773.349 383.105 767.064 377.601 762.305 370.357C757.618 363.112 755.274 354.305 755.274 343.936C755.274 337.118 756.482 331.116 758.896 325.932C761.311 320.747 765.04 316.273 770.082 312.509C775.125 308.744 781.588 305.655 789.472 303.24C797.355 300.754 806.766 298.837 817.703 297.487C826.013 296.493 833.435 295.534 839.969 294.611C846.503 293.616 851.616 292.089 855.31 290.03C859.074 287.97 860.956 284.845 860.956 280.655V273.837C860.956 261.905 857.192 252.423 849.663 245.392C842.135 238.361 831.766 234.845 818.555 234.845C806.837 234.845 796.964 237.437 788.939 242.622C780.984 247.736 775.409 254.341 772.213 262.438L759.962 257.857C763.087 250.044 767.597 243.545 773.491 238.361C779.457 233.176 786.276 229.305 793.946 226.749C801.688 224.192 809.784 222.913 818.236 222.913C825.551 222.913 832.511 223.943 839.116 226.003C845.793 228.062 851.723 231.188 856.908 235.378C862.163 239.568 866.318 244.93 869.372 251.464C872.426 257.928 873.953 265.669 873.953 274.689V389H860.956V359.49H859.997C857.156 365.598 853.25 371.173 848.278 376.216C843.378 381.188 837.447 385.165 830.487 388.148C823.598 391.06 815.821 392.516 807.156 392.516ZM808.435 380.477C818.662 380.477 827.717 377.991 835.601 373.02C843.555 367.977 849.77 361.088 854.244 352.352C858.719 343.616 860.956 333.709 860.956 322.629V298.553C859.322 299.973 856.943 301.251 853.818 302.388C850.764 303.453 847.284 304.412 843.378 305.264C839.543 306.045 835.494 306.756 831.233 307.395C827.043 307.963 822.959 308.496 818.982 308.993C807.05 310.413 797.32 312.615 789.791 315.598C782.334 318.51 776.865 322.345 773.385 327.104C769.976 331.862 768.271 337.615 768.271 344.362C768.271 355.513 772.107 364.32 779.777 370.783C787.447 377.246 797 380.477 808.435 380.477ZM928.445 389V225.364H941.123V250.08H942.401C945.526 241.841 950.924 235.307 958.594 230.477C966.265 225.648 975.498 223.233 986.293 223.233C998.154 223.233 1007.71 226.074 1014.95 231.756C1022.27 237.437 1027.52 245.143 1030.72 254.874H1031.89C1035.09 245.286 1040.8 237.615 1049.04 231.862C1057.35 226.109 1067.58 223.233 1079.72 223.233C1095.56 223.233 1107.64 228.24 1115.95 238.254C1124.33 248.197 1128.52 261.834 1128.52 279.163V389H1115.52V279.163C1115.52 265.527 1112.25 254.803 1105.72 246.99C1099.18 239.178 1089.6 235.271 1076.95 235.271C1063.46 235.271 1053.09 239.497 1045.85 247.949C1038.6 256.401 1034.98 267.161 1034.98 280.229V389H1021.98V278.311C1021.98 265.598 1018.79 255.264 1012.39 247.31C1006 239.284 996.414 235.271 983.63 235.271C974.965 235.271 967.472 237.26 961.151 241.237C954.901 245.214 950.036 250.683 946.556 257.643C943.147 264.604 941.442 272.594 941.442 281.614V389H928.445ZM1246.26 392.409C1231.49 392.409 1218.64 388.751 1207.7 381.436C1196.76 374.121 1188.31 364.107 1182.34 351.393C1176.38 338.68 1173.39 324.192 1173.39 307.928C1173.39 291.592 1176.38 277.033 1182.34 264.249C1188.38 251.464 1196.65 241.379 1207.17 233.993C1217.68 226.607 1229.68 222.913 1243.17 222.913C1252.34 222.913 1261 224.76 1269.17 228.453C1277.41 232.075 1284.65 237.331 1290.9 244.22C1297.22 251.109 1302.16 259.419 1305.71 269.149C1309.33 278.879 1311.14 289.817 1311.14 301.962V310.058H1181.6V298.233H1298.15C1298.15 286.372 1295.73 275.683 1290.9 266.166C1286.07 256.649 1279.5 249.085 1271.19 243.474C1262.88 237.864 1253.54 235.058 1243.17 235.058C1232.31 235.058 1222.61 238.112 1214.09 244.22C1205.64 250.257 1198.93 258.425 1193.95 268.723C1189.05 279.021 1186.5 290.527 1186.28 303.24V308.567C1186.28 322.203 1188.66 334.455 1193.42 345.321C1198.25 356.116 1205.14 364.675 1214.09 370.996C1223.04 377.246 1233.76 380.371 1246.26 380.371C1255.21 380.371 1262.85 378.879 1269.17 375.896C1275.56 372.842 1280.78 369.149 1284.83 364.817C1288.88 360.484 1291.93 356.294 1293.99 352.246L1305.82 357.04C1303.33 362.509 1299.46 367.977 1294.2 373.446C1289.02 378.844 1282.41 383.354 1274.39 386.976C1266.43 390.598 1257.06 392.409 1246.26 392.409ZM1413.73 225.364V236.976H1342.25V225.364H1413.73ZM1366.43 186.159H1379.32V350.328C1379.32 357.004 1380.6 362.473 1383.16 366.734C1385.79 370.925 1389.2 374.05 1393.39 376.109C1397.65 378.098 1402.19 379.092 1407.02 379.092C1409.37 379.092 1411.39 378.915 1413.1 378.56C1414.87 378.205 1416.54 377.743 1418.1 377.175L1421.3 389C1419.31 389.71 1417.11 390.314 1414.69 390.811C1412.28 391.379 1409.44 391.663 1406.17 391.663C1399.35 391.663 1392.89 390.136 1386.78 387.082C1380.74 384.028 1375.84 379.589 1372.08 373.766C1368.32 367.942 1366.43 360.911 1366.43 352.672V186.159ZM1524 392.409C1509.22 392.409 1496.37 388.751 1485.43 381.436C1474.49 374.121 1466.04 364.107 1460.08 351.393C1454.11 338.68 1451.13 324.192 1451.13 307.928C1451.13 291.592 1454.11 277.033 1460.08 264.249C1466.11 251.464 1474.39 241.379 1484.9 233.993C1495.41 226.607 1507.41 222.913 1520.91 222.913C1530.07 222.913 1538.73 224.76 1546.9 228.453C1555.14 232.075 1562.39 237.331 1568.64 244.22C1574.96 251.109 1579.89 259.419 1583.44 269.149C1587.07 278.879 1588.88 289.817 1588.88 301.962V310.058H1459.33V298.233H1575.88C1575.88 286.372 1573.46 275.683 1568.64 266.166C1563.81 256.649 1557.24 249.085 1548.93 243.474C1540.62 237.864 1531.28 235.058 1520.91 235.058C1510.04 235.058 1500.35 238.112 1491.82 244.22C1483.37 250.257 1476.66 258.425 1471.69 268.723C1466.79 279.021 1464.23 290.527 1464.02 303.24V308.567C1464.02 322.203 1466.4 334.455 1471.16 345.321C1475.99 356.116 1482.88 364.675 1491.82 370.996C1500.77 377.246 1511.5 380.371 1524 380.371C1532.95 380.371 1540.58 378.879 1546.9 375.896C1553.29 372.842 1558.51 369.149 1562.56 364.817C1566.61 360.484 1569.67 356.294 1571.72 352.246L1583.55 357.04C1581.06 362.509 1577.19 367.977 1571.94 373.446C1566.75 378.844 1560.15 383.354 1552.12 386.976C1544.17 390.598 1534.79 392.409 1524 392.409ZM1633.62 389V225.364H1646.3V250.932H1647.47C1651.02 242.551 1657.02 235.839 1665.47 230.797C1673.93 225.683 1683.55 223.126 1694.35 223.126C1695.48 223.126 1696.62 223.126 1697.75 223.126C1698.89 223.126 1699.96 223.162 1700.95 223.233V236.337C1700.1 236.266 1699.07 236.159 1697.86 236.017C1696.72 235.804 1695.3 235.697 1693.6 235.697C1684.51 235.697 1676.41 237.651 1669.31 241.557C1662.28 245.463 1656.74 250.861 1652.69 257.75C1648.64 264.568 1646.62 272.381 1646.62 281.188V389H1633.62Z" fill="white"/>
<path d="M1027.32 535V425.909H1060.93C1067.82 425.909 1073.75 427.259 1078.72 429.957C1083.69 432.656 1087.51 436.403 1090.17 441.197C1092.84 445.955 1094.17 451.495 1094.17 457.816C1094.17 464.066 1092.84 469.57 1090.17 474.329C1087.51 479.052 1083.69 482.745 1078.72 485.408C1073.79 488.072 1067.87 489.403 1060.98 489.403H1030.89V483.171H1060.82C1066.44 483.171 1071.23 482.124 1075.21 480.028C1079.18 477.933 1082.24 475.004 1084.37 471.239C1086.5 467.44 1087.56 462.965 1087.56 457.816C1087.56 452.631 1086.5 448.121 1084.37 444.286C1082.24 440.415 1079.17 437.415 1075.15 435.284C1071.18 433.153 1066.38 432.088 1060.77 432.088H1033.98V535H1027.32ZM1072.12 485.568L1098.96 535H1091.29L1064.61 485.568H1072.12ZM1149.51 536.705C1142.13 536.705 1135.7 534.876 1130.23 531.218C1124.76 527.56 1120.54 522.553 1117.55 516.197C1114.57 509.84 1113.08 502.596 1113.08 494.464C1113.08 486.296 1114.57 479.016 1117.55 472.624C1120.57 466.232 1124.71 461.19 1129.97 457.496C1135.22 453.803 1141.22 451.957 1147.97 451.957C1152.55 451.957 1156.88 452.88 1160.97 454.727C1165.09 456.538 1168.71 459.165 1171.83 462.61C1174.99 466.055 1177.46 470.21 1179.24 475.075C1181.05 479.94 1181.95 485.408 1181.95 491.481V495.529H1117.18V489.616H1175.46C1175.46 483.686 1174.25 478.342 1171.83 473.583C1169.42 468.825 1166.13 465.043 1161.98 462.237C1157.82 459.432 1153.15 458.029 1147.97 458.029C1142.54 458.029 1137.69 459.556 1133.43 462.61C1129.2 465.629 1125.85 469.712 1123.36 474.862C1120.91 480.011 1119.63 485.763 1119.53 492.12V494.783C1119.53 501.602 1120.71 507.727 1123.09 513.161C1125.51 518.558 1128.95 522.837 1133.43 525.998C1137.9 529.123 1143.26 530.685 1149.51 530.685C1153.99 530.685 1157.81 529.94 1160.97 528.448C1164.16 526.921 1166.77 525.075 1168.8 522.908C1170.82 520.742 1172.35 518.647 1173.38 516.623L1179.29 519.02C1178.05 521.754 1176.11 524.489 1173.48 527.223C1170.89 529.922 1167.59 532.177 1163.58 533.988C1159.6 535.799 1154.91 536.705 1149.51 536.705ZM1256.31 470.813L1250.3 472.411C1249.34 469.428 1247.97 466.854 1246.19 464.688C1244.42 462.521 1242.18 460.852 1239.48 459.68C1236.82 458.473 1233.62 457.869 1229.89 457.869C1223.89 457.869 1218.97 459.361 1215.14 462.344C1211.34 465.327 1209.44 469.215 1209.44 474.009C1209.44 477.915 1210.74 481.147 1213.33 483.704C1215.92 486.225 1219.88 488.143 1225.21 489.457L1237.78 492.599C1244.24 494.197 1249.11 496.79 1252.37 500.376C1255.64 503.928 1257.27 508.349 1257.27 513.64C1257.27 518.15 1256.05 522.145 1253.6 525.625C1251.15 529.105 1247.76 531.822 1243.42 533.775C1239.13 535.728 1234.12 536.705 1228.4 536.705C1220.77 536.705 1214.5 534.929 1209.6 531.378C1204.7 527.791 1201.56 522.66 1200.17 515.984L1206.4 514.386C1207.58 519.712 1210.01 523.778 1213.7 526.584C1217.43 529.354 1222.31 530.739 1228.35 530.739C1235.03 530.739 1240.41 529.158 1244.49 525.998C1248.61 522.837 1250.67 518.789 1250.67 513.853C1250.67 510.089 1249.46 506.911 1247.05 504.318C1244.63 501.726 1240.97 499.826 1236.07 498.619L1223.02 495.423C1216.35 493.789 1211.34 491.179 1208 487.592C1204.66 483.97 1202.99 479.513 1202.99 474.222C1202.99 469.819 1204.15 465.948 1206.46 462.61C1208.77 459.272 1211.94 456.662 1215.99 454.78C1220.04 452.898 1224.67 451.957 1229.89 451.957C1236.82 451.957 1242.47 453.59 1246.83 456.857C1251.2 460.124 1254.36 464.776 1256.31 470.813ZM1311.67 536.705C1304.29 536.705 1297.86 534.876 1292.39 531.218C1286.92 527.56 1282.7 522.553 1279.71 516.197C1276.73 509.84 1275.24 502.596 1275.24 494.464C1275.24 486.296 1276.73 479.016 1279.71 472.624C1282.73 466.232 1286.87 461.19 1292.12 457.496C1297.38 453.803 1303.38 451.957 1310.13 451.957C1314.71 451.957 1319.04 452.88 1323.12 454.727C1327.24 456.538 1330.87 459.165 1333.99 462.61C1337.15 466.055 1339.62 470.21 1341.4 475.075C1343.21 479.94 1344.11 485.408 1344.11 491.481V495.529H1279.34V489.616H1337.61C1337.61 483.686 1336.41 478.342 1333.99 473.583C1331.58 468.825 1328.29 465.043 1324.14 462.237C1319.98 459.432 1315.31 458.029 1310.13 458.029C1304.69 458.029 1299.85 459.556 1295.59 462.61C1291.36 465.629 1288 469.712 1285.52 474.862C1283.07 480.011 1281.79 485.763 1281.68 492.12V494.783C1281.68 501.602 1282.87 507.727 1285.25 513.161C1287.67 518.558 1291.11 522.837 1295.59 525.998C1300.06 529.123 1305.42 530.685 1311.67 530.685C1316.15 530.685 1319.96 529.94 1323.12 528.448C1326.32 526.921 1328.93 525.075 1330.96 522.908C1332.98 520.742 1334.51 518.647 1335.54 516.623L1341.45 519.02C1340.21 521.754 1338.27 524.489 1335.64 527.223C1333.05 529.922 1329.75 532.177 1325.74 533.988C1321.76 535.799 1317.07 536.705 1311.67 536.705ZM1388.16 536.758C1383.44 536.758 1379.11 535.817 1375.17 533.935C1371.26 532.053 1368.12 529.3 1365.74 525.678C1363.39 522.056 1362.22 517.653 1362.22 512.468C1362.22 509.059 1362.83 506.058 1364.03 503.466C1365.24 500.874 1367.11 498.636 1369.63 496.754C1372.15 494.872 1375.38 493.327 1379.32 492.12C1383.26 490.877 1387.97 489.918 1393.44 489.244C1397.59 488.746 1401.3 488.267 1404.57 487.805C1407.84 487.308 1410.39 486.545 1412.24 485.515C1414.12 484.485 1415.06 482.923 1415.06 480.827V477.418C1415.06 471.452 1413.18 466.712 1409.42 463.196C1405.65 459.68 1400.47 457.923 1393.86 457.923C1388 457.923 1383.07 459.219 1379.06 461.811C1375.08 464.368 1372.29 467.67 1370.69 471.719L1364.57 469.428C1366.13 465.522 1368.38 462.273 1371.33 459.68C1374.31 457.088 1377.72 455.153 1381.56 453.874C1385.43 452.596 1389.48 451.957 1393.7 451.957C1397.36 451.957 1400.84 452.472 1404.14 453.501C1407.48 454.531 1410.45 456.094 1413.04 458.189C1415.67 460.284 1417.75 462.965 1419.27 466.232C1420.8 469.464 1421.56 473.335 1421.56 477.844V535H1415.06V520.245H1414.58C1413.16 523.299 1411.21 526.087 1408.73 528.608C1406.27 531.094 1403.31 533.082 1399.83 534.574C1396.38 536.03 1392.5 536.758 1388.16 536.758ZM1388.8 530.739C1393.92 530.739 1398.44 529.496 1402.39 527.01C1406.36 524.489 1409.47 521.044 1411.71 516.676C1413.95 512.308 1415.06 507.354 1415.06 501.815V489.776C1414.25 490.487 1413.06 491.126 1411.5 491.694C1409.97 492.227 1408.23 492.706 1406.27 493.132C1404.36 493.523 1402.33 493.878 1400.2 494.197C1398.11 494.482 1396.07 494.748 1394.08 494.996C1388.11 495.707 1383.25 496.808 1379.48 498.299C1375.75 499.755 1373.02 501.673 1371.28 504.052C1369.57 506.431 1368.72 509.308 1368.72 512.681C1368.72 518.256 1370.64 522.66 1374.47 525.891C1378.31 529.123 1383.09 530.739 1388.8 530.739ZM1448.81 535V453.182H1455.15V465.966H1455.73C1457.51 461.776 1460.51 458.42 1464.74 455.898C1468.96 453.342 1473.77 452.063 1479.17 452.063C1479.74 452.063 1480.31 452.063 1480.88 452.063C1481.44 452.063 1481.98 452.081 1482.47 452.116V458.668C1482.05 458.633 1481.53 458.58 1480.93 458.509C1480.36 458.402 1479.65 458.349 1478.8 458.349C1474.25 458.349 1470.2 459.325 1466.65 461.278C1463.14 463.232 1460.37 465.93 1458.34 469.375C1456.32 472.784 1455.31 476.69 1455.31 481.094V535H1448.81ZM1528.12 536.705C1521.16 536.705 1515.04 534.876 1509.75 531.218C1504.45 527.525 1500.32 522.482 1497.33 516.09C1494.39 509.698 1492.91 502.454 1492.91 494.357C1492.91 486.261 1494.41 479.016 1497.39 472.624C1500.37 466.232 1504.51 461.19 1509.8 457.496C1515.09 453.803 1521.18 451.957 1528.07 451.957C1533.25 451.957 1537.98 453.022 1542.24 455.153C1546.54 457.283 1550.09 460.249 1552.89 464.048C1555.73 467.848 1557.54 472.251 1558.33 477.259H1551.72C1550.66 471.719 1547.99 467.138 1543.73 463.516C1539.5 459.858 1534.3 458.029 1528.12 458.029C1522.58 458.029 1517.65 459.592 1513.31 462.717C1508.98 465.806 1505.57 470.085 1503.09 475.554C1500.6 480.987 1499.36 487.219 1499.36 494.251C1499.36 501.175 1500.57 507.39 1502.98 512.894C1505.4 518.363 1508.77 522.695 1513.1 525.891C1517.43 529.087 1522.44 530.685 1528.12 530.685C1532.14 530.685 1535.79 529.886 1539.1 528.288C1542.43 526.69 1545.22 524.418 1547.46 521.47C1549.7 518.523 1551.17 515.078 1551.88 511.136H1558.49C1557.7 516.179 1555.93 520.618 1553.16 524.453C1550.39 528.288 1546.86 531.289 1542.56 533.455C1538.26 535.621 1533.45 536.705 1528.12 536.705ZM1587.14 481.946V535H1580.64V425.909H1587.14V466.126H1587.78C1589.7 461.864 1592.75 458.473 1596.94 455.952C1601.17 453.395 1606.23 452.116 1612.13 452.116C1617.63 452.116 1622.48 453.288 1626.67 455.632C1630.86 457.94 1634.12 461.261 1636.47 465.593C1638.85 469.89 1640.04 475.039 1640.04 481.04V535H1633.59V481.307C1633.59 474.311 1631.51 468.7 1627.36 464.474C1623.2 460.249 1617.72 458.136 1610.9 458.136C1606.32 458.136 1602.24 459.13 1598.65 461.119C1595.06 463.107 1592.24 465.895 1590.18 469.482C1588.16 473.033 1587.14 477.188 1587.14 481.946Z" fill="white"/>
</svg>
